<svg id="Слой_1" data-name="Слой 1" xmlns="http://www.w3.org/2000/svg" viewBox="0 0 16.18 18.54"><path d="M14.89,6.24,13,5.12l.34-.18,2.42-1.09a.33.33,0,0,1,.33,0l1.87.94A.26.26,0,0,1,18,5c0,1,0,1.89,0,2.84a.19.19,0,0,1-.14.2L15.42,9.15,10.7,11.28l-4.47,2L5,13.88l1.89,1.06c-.48.23-.9.44-1.32.63l-1.48.67a.25.25,0,0,1-.19,0c-.63-.31-1.25-.62-1.86-1a.28.28,0,0,1-.12-.21c0-.88,0-1.76,0-2.65A.4.4,0,0,1,2.22,12l3.16-1.43L8.52,9.15l4.36-2,1.82-.84Z" transform="translate(-1.91 -0.73)"/><path d="M9.87,6.54c-.6.28-1.14.53-1.69.77-.27.13-.55.27-.83.38a.36.36,0,0,1-.27,0c-.83-.44-1.66-.9-2.49-1.35l-.15-.07V8.85a.26.26,0,0,1-.1.19c-.78.36-1.57.7-2.38,1.06,0-.21-.05-.41-.05-.6V5A.26.26,0,0,1,2,4.82c.71-.36,1.42-.71,2.12-1.08a.43.43,0,0,1,.44,0L8,5.5l1.6.87Z" transform="translate(-1.91 -0.73)"/><path d="M10.12,13.49c.51-.24,1-.46,1.48-.67.31-.14.63-.26.93-.42a.38.38,0,0,1,.4,0l2,1,.62.31c0-.09,0-.16.05-.24,0-.78,0-1.56,0-2.35a.23.23,0,0,1,.09-.18L18,9.92H18c0,.29,0,.57.05.86v3.63A4.34,4.34,0,0,1,18,15c0,.06-.07.12-.12.15L15.7,16.37a.25.25,0,0,1-.17,0l-5.18-2.73A2.38,2.38,0,0,1,10.12,13.49Z" transform="translate(-1.91 -0.73)"/><path d="M5.91,2.82,8,1.69,9.85.76a.36.36,0,0,1,.25,0L14.16,2.9l.08.05-.59.29-2.22,1a.31.31,0,0,1-.25,0c-.36-.17-.72-.36-1.08-.55a.26.26,0,0,0-.28,0l-1,.5a.31.31,0,0,1-.23,0C7.7,3.77,6.85,3.33,6,2.9,6,2.89,6,2.86,5.91,2.82Z" transform="translate(-1.91 -0.73)"/><path d="M5.88,17.13c.83-.37,1.63-.72,2.42-1.09a.65.65,0,0,1,.62,0c.27.14.55.26.82.39a.56.56,0,0,0,.52,0l1.23-.53a.39.39,0,0,1,.28,0l2.4,1.22.09.07-3.17,1.56-1,.49a.21.21,0,0,1-.19,0L6.18,17.34A2.37,2.37,0,0,1,5.88,17.13Z" transform="translate(-1.91 -0.73)"/></svg>