<svg id="Слой_1" data-name="Слой 1" xmlns="http://www.w3.org/2000/svg" viewBox="0 0 11.18 17.9"><path d="M10.18,1.05l2.34,3.89L15.1,9.25a4.34,4.34,0,0,1,.31.61L15,9.69,11.71,8.24,10.24,7.6a.16.16,0,0,1-.12-.18V1.2a.77.77,0,0,1,0-.15Z" transform="translate(-4.41 -1.05)"/><path d="M9.79,1.05a1.38,1.38,0,0,1,0,.2V7.37a.25.25,0,0,1-.18.26l-3,1.3-2,.87-.12,0a1.21,1.21,0,0,1,.08-.19q1.39-2.36,2.8-4.71l2.26-3.8a.59.59,0,0,0,0-.08Z" transform="translate(-4.41 -1.05)"/><path d="M10.11,19c0-.07,0-.14,0-.21v-4a.28.28,0,0,1,.16-.28c.78-.44,1.54-.9,2.3-1.34l2.75-1.62a.23.23,0,0,1,.15,0c-.05.08-.1.17-.16.25l-2.11,3-3,4.22,0,0Z" transform="translate(-4.41 -1.05)"/><path d="M9.72,19l-2-2.88L6,13.63l-1.4-2a.45.45,0,0,1-.09-.21l.22.1,3.4,2,1.61.94a.23.23,0,0,1,.11.23v4a1.48,1.48,0,0,0,0,.21Z" transform="translate(-4.41 -1.05)"/><path d="M10.13,13.48V7.88l5.46,2.4Z" transform="translate(-4.41 -1.05)"/><path d="M4.41,10.25,9.8,7.89v5.58L4.41,10.31Z" transform="translate(-4.41 -1.05)"/></svg>