<svg id="Слой_1" data-name="Слой 1" xmlns="http://www.w3.org/2000/svg" viewBox="0 0 18.64 15.57"><path d="M10.62,14.42c-.72.69-1.42,1.37-2.14,2a4.06,4.06,0,0,1-.7.42l-.09-.1c0-.7.09-1.4.14-2.1s.07-1.24.14-1.86a.9.9,0,0,1,.27-.56Q12,8.88,15.72,5.52c.14-.12.32-.19.45-.31a.54.54,0,0,0-.79,0L12.43,7,5.86,11.14a.61.61,0,0,1-.57.09C4,10.81,2.68,10.41,1.38,10c-.31-.1-.68-.18-.7-.59s.33-.56.63-.68l5-1.92L17.93,2.36a2,2,0,0,1,.49-.14.73.73,0,0,1,.89.73A3.93,3.93,0,0,1,19.2,4c-.88,4.19-1.78,8.37-2.67,12.55,0,.11-.05.22-.08.32-.23.92-.86,1.14-1.65.58L11,14.71Z" transform="translate(-0.68 -2.21)" style="fill:#69398e"/></svg>