<svg id="Слой_1" data-name="Слой 1" xmlns="http://www.w3.org/2000/svg" viewBox="0 0 16.88 18.34"><path d="M3.47,3.74c.45.72.91,1.43,1.36,2.14.1.16.19.33.3.49a.77.77,0,0,0,1.25.29c.28-.18.32-.4.09-.64S6,5.6,5.78,5.4A33.24,33.24,0,0,1,1.56.83l.61.52L6.9,5.54c.21.2.51.36.46.75a1.23,1.23,0,0,1-.68,1,4.24,4.24,0,0,1-1,.32c-.57.1-.78.26-.82.84a6.36,6.36,0,0,1-.63,2.26,1.55,1.55,0,0,0,.62,2.31,5,5,0,0,1,.52.38,1.18,1.18,0,0,1,.08,1.81,4.5,4.5,0,0,1-2.18,1.08l-.41.07-.73-1.26a2.81,2.81,0,0,1,.23-3.48c.11-.11.2-.25.3-.37A5.11,5.11,0,0,0,4,8.34a2,2,0,0,1,.53-1.21,1,1,0,0,0,.07-1.25L3.41,3.79Z" transform="translate(-1.56 -0.83)"/><path d="M11.61,6.8c1,.8,2.15.76,3.26,1a5,5,0,0,1,2.52,1.08,3.27,3.27,0,0,1,.64,4s0,.05-.09.1a.18.18,0,0,1,0-.09,1.88,1.88,0,0,0-1.06-1.61c-.76-.4-1.57-.71-2.34-1.1a14.75,14.75,0,0,1-2-1.09A2.2,2.2,0,0,1,11.61,6.8Z" transform="translate(-1.56 -0.83)"/><path d="M6.63,2a11.19,11.19,0,0,1,1.16.18A4.53,4.53,0,0,1,10,3.7a.49.49,0,0,0,.52.19,6,6,0,0,1,4.24.79.77.77,0,0,1,.31.44A2.22,2.22,0,0,1,15,6.44a.46.46,0,0,0,.11.43.42.42,0,0,0,.43-.09,10.47,10.47,0,0,0,.53-1.06,4.82,4.82,0,0,1,1.2,2.34h-.08a2.22,2.22,0,0,0-1.94-1C14.62,7,14,7,13.41,6.91A4,4,0,0,1,10.67,5.3c-.31-.41-.63-.8-.95-1.21a4.53,4.53,0,0,0-3.12-2Z" transform="translate(-1.56 -0.83)"/><path d="M14,10.43c.84.51,1.72,1,2.52,1.55,2,1.44,1.36,4.69-.76,5.57,0-.07,0-.13,0-.18a2.31,2.31,0,0,0-.09-2.3c-.38-.65-.8-1.28-1.21-1.92a3.7,3.7,0,0,1-.68-1.68,8.44,8.44,0,0,1,0-1Z" transform="translate(-1.56 -0.83)"/><path d="M5.31,16.1a5.55,5.55,0,0,1,4.06-1.59,2.47,2.47,0,0,1,2.48,2.38c.05.29.08.57.14.86a1.23,1.23,0,0,0,1.62,1.05c.2,0,.39-.1.61-.16a1.65,1.65,0,0,1-2.48-.06A8.37,8.37,0,0,1,11,17.3a2.67,2.67,0,0,0-.94-1.23,1.4,1.4,0,0,0-1.16-.19.88.88,0,0,0-.66,1,1,1,0,0,0,1,.76.71.71,0,0,0,.64-.54.51.51,0,0,0-.34-.67.8.8,0,0,0-.59,0c-.12.07-.13.31-.18.45-.17-.2-.08-.53.26-.69a.87.87,0,0,1,1,.25,1,1,0,0,1,0,1.15,1.18,1.18,0,0,1-1.61.2,2.79,2.79,0,0,1-.55-.48,3.24,3.24,0,0,0-2.18-1.15A1.5,1.5,0,0,1,5.31,16.1Z" transform="translate(-1.56 -0.83)"/><path d="M8.85,6.18c-.09,0-.24.06-.34,0a3.66,3.66,0,0,1-.93-.52,3.71,3.71,0,0,1-1.1-3.12,1.69,1.69,0,0,1,1.46,1c.12.3.17.62.27.92C8.41,5,8.62,5.55,8.85,6.18Z" transform="translate(-1.56 -0.83)"/><path d="M8.28,13.86a3.47,3.47,0,0,1,1.56-.68l1.44-.26A2,2,0,0,0,13,10.29c0-.08,0-.16-.05-.27a1.91,1.91,0,0,1,.17,2.45,2.64,2.64,0,0,1-2,1A11.65,11.65,0,0,0,8.28,13.86Z" transform="translate(-1.56 -0.83)"/><path d="M7.75,9.32c-.62-.05-.88-.45-.62-1a.92.92,0,0,1,.78-.58,1,1,0,0,1,.93.51.5.5,0,0,1-.2.78A6.2,6.2,0,0,1,7.75,9.32Z" transform="translate(-1.56 -0.83)"/><path d="M13.85,3.51l1.31.43.24-1.43h0c0,.28,0,.56,0,.84a1.54,1.54,0,0,0,.47,1.12,9.32,9.32,0,0,1,.92,1.06L15.77,4.7l-.29,1.73H15.4c0-.49,0-1,0-1.46a.94.94,0,0,0-.49-.79c-.35-.21-.72-.41-1.08-.61Z" transform="translate(-1.56 -0.83)"/></svg>